<svg version="1.1" id="Layer_1" xmlns="http://www.w3.org/2000/svg" xmlns:xlink="http://www.w3.org/1999/xlink" x="0px" y="0px"
	 width="100%" viewBox="0 0 184 147" enable-background="new 0 0 184 147" xml:space="preserve">
<path fill="#FDFEFE" opacity="1.000000" stroke="none" 
	d="
M132.000000,148.000000 
	C88.032875,148.000000 44.565754,148.000000 1.049315,148.000000 
	C1.049315,99.069954 1.049315,50.139843 1.049315,1.104865 
	C62.216908,1.104865 123.434052,1.104865 184.825592,1.104865 
	C184.825592,49.999485 184.825592,98.999702 184.825592,148.000000 
	C167.473526,148.000000 149.986755,148.000000 132.000000,148.000000 
M86.942528,30.168970 
	C69.301712,32.541195 57.609020,42.410507 50.714592,58.572369 
	C50.071552,60.079773 48.099880,61.431652 46.446236,62.030590 
	C34.898010,66.213264 26.691673,76.820847 26.139629,88.648071 
	C25.549223,101.297249 32.474667,112.834023 43.539906,117.634415 
	C55.440098,122.797028 68.636086,120.298569 77.602173,111.080803 
	C80.130920,108.481049 82.444389,105.671875 84.843231,102.973793 
	C86.267242,103.730270 87.428413,104.347130 88.710464,105.028198 
	C89.574226,99.765594 90.364525,94.950592 91.292343,89.297714 
	C85.860252,91.231171 81.392471,92.821388 76.862198,94.433853 
	C79.147766,98.708611 72.742897,107.012863 64.955673,110.544350 
	C53.587002,115.700005 39.893837,110.149590 35.614155,98.651001 
	C31.235580,86.886719 36.962711,73.780960 48.092628,70.588493 
	C47.646568,85.104271 52.505623,97.323845 63.920998,107.095955 
	C65.817123,105.566566 67.660217,104.079956 69.368919,102.701744 
	C66.419197,98.946922 63.590679,95.871964 61.357544,92.412651 
	C51.756081,77.539146 55.403088,57.035660 69.514961,45.589294 
	C83.003723,34.648338 103.416931,35.089417 115.687668,47.164169 
	C119.721107,51.133198 123.455933,52.810741 128.634766,50.496147 
	C123.772209,39.860832 106.909370,28.220057 86.942528,30.168970 
M108.152725,81.156837 
	C107.966576,79.851524 107.780418,78.546211 107.514244,76.679810 
	C118.770401,62.190121 130.159897,58.802574 142.037354,66.917801 
	C151.073441,73.091660 154.046204,86.498276 148.453964,95.855568 
	C142.953430,105.059410 131.392029,109.243454 122.635338,104.858284 
	C131.341507,96.367172 135.479126,85.940285 135.842102,73.990166 
	C136.061203,66.777390 135.321640,66.203049 127.499596,67.156151 
	C127.606857,67.943695 127.740829,68.723175 127.815903,69.508293 
	C129.908829,91.397682 112.768883,110.664299 90.204597,109.509521 
	C84.272491,109.205933 82.083611,111.754257 79.254211,115.641724 
	C91.209862,118.448059 102.384476,117.924118 113.083595,112.220741 
	C114.178772,111.636940 115.822220,111.843346 117.169563,112.013374 
	C122.212296,112.649757 127.283531,114.264130 132.261261,113.992729 
	C149.226959,113.067673 161.291229,97.432640 158.888138,80.230606 
	C156.628357,64.054596 140.420410,52.446209 124.309624,55.335537 
	C113.881737,57.205692 107.007088,64.035805 100.781227,71.874428 
	C99.602371,71.365356 98.524544,70.899910 97.261986,70.354691 
	C96.368378,75.495018 95.542885,80.243538 94.559135,85.902412 
	C99.684288,84.119308 103.593681,82.759186 108.152725,81.156837 
z"/>
<path fill="#3E75BD" opacity="1.000000" stroke="none" 
	d="
M87.397079,30.110634 
	C106.909370,28.220057 123.772209,39.860832 128.634766,50.496147 
	C123.455933,52.810741 119.721107,51.133198 115.687668,47.164169 
	C103.416931,35.089417 83.003723,34.648338 69.514961,45.589294 
	C55.403088,57.035660 51.756081,77.539146 61.357544,92.412651 
	C63.590679,95.871964 66.419197,98.946922 69.368919,102.701744 
	C67.660217,104.079956 65.817123,105.566566 63.920998,107.095955 
	C52.505623,97.323845 47.646568,85.104271 48.092628,70.588493 
	C36.962711,73.780960 31.235580,86.886719 35.614155,98.651001 
	C39.893837,110.149590 53.587002,115.700005 64.955673,110.544350 
	C72.742897,107.012863 79.147766,98.708611 76.862198,94.433853 
	C81.392471,92.821388 85.860252,91.231171 91.292343,89.297714 
	C90.364525,94.950592 89.574226,99.765594 88.710464,105.028198 
	C87.428413,104.347130 86.267242,103.730270 84.843231,102.973793 
	C82.444389,105.671875 80.130920,108.481049 77.602173,111.080803 
	C68.636086,120.298569 55.440098,122.797028 43.539906,117.634415 
	C32.474667,112.834023 25.549223,101.297249 26.139629,88.648071 
	C26.691673,76.820847 34.898010,66.213264 46.446236,62.030590 
	C48.099880,61.431652 50.071552,60.079773 50.714592,58.572369 
	C57.609020,42.410507 69.301712,32.541195 87.397079,30.110634 
z"/>
<path fill="#3D75BC" opacity="1.000000" stroke="none" 
	d="
M107.827904,81.277946 
	C103.593681,82.759186 99.684288,84.119308 94.559135,85.902412 
	C95.542885,80.243538 96.368378,75.495018 97.261986,70.354691 
	C98.524544,70.899910 99.602371,71.365356 100.781227,71.874428 
	C107.007088,64.035805 113.881737,57.205692 124.309624,55.335537 
	C140.420410,52.446209 156.628357,64.054596 158.888138,80.230606 
	C161.291229,97.432640 149.226959,113.067673 132.261261,113.992729 
	C127.283531,114.264130 122.212296,112.649757 117.169563,112.013374 
	C115.822220,111.843346 114.178772,111.636940 113.083595,112.220741 
	C102.384476,117.924118 91.209862,118.448059 79.254211,115.641724 
	C82.083611,111.754257 84.272491,109.205933 90.204597,109.509521 
	C112.768883,110.664299 129.908829,91.397682 127.815903,69.508293 
	C127.740829,68.723175 127.606857,67.943695 127.499596,67.156151 
	C135.321640,66.203049 136.061203,66.777390 135.842102,73.990166 
	C135.479126,85.940285 131.341507,96.367172 122.635338,104.858284 
	C131.392029,109.243454 142.953430,105.059410 148.453964,95.855568 
	C154.046204,86.498276 151.073441,73.091660 142.037354,66.917801 
	C130.159897,58.802574 118.770401,62.190121 107.514244,76.679810 
	C107.780418,78.546211 107.966576,79.851524 107.827904,81.277946 
z"/>
</svg>